<svg id="Ebene_3" data-name="Ebene 3" xmlns="http://www.w3.org/2000/svg" viewBox="0 0 162.48 48.14"><defs><style>.cls-1{fill:none;}.cls-2{fill:#009de1;}.cls-3{fill:#96c52c;}.cls-4{fill:#0e0015;stroke:#000;stroke-miterlimit:10;stroke-width:0.25px;}.cls-5{fill:#c1011f;}</style></defs><title>PA-Logo-klein</title><path class="cls-1" d="M78.35,4.53c1.34-1.5,2.6-3,3.8-4.56H73.79C59.18,16.89,39.22,30.75,16.1,39.74,41.81,33,63.77,20.75,78.35,4.53Z" transform="translate(-0.08 0.03)"/><path class="cls-1" d="M87.19,0H84.65q-2.24,3-4.83,5.89c-15,16.68-37.65,29.19-64.12,36C46.23,34.91,71.8,19.65,87.19,0Z" transform="translate(-0.08 0.03)"/><path class="cls-2" d="M79.82,5.86Q82.42,3,84.65,0H82.14c-1.2,1.54-2.45,3.06-3.8,4.56C63.77,20.75,41.81,33,16.1,39.74Q9.5,42.3,2.58,44.33q6.7-1,13.13-2.44C42.18,35,64.83,22.54,79.82,5.86Z" transform="translate(-0.08 0.03)"/><path class="cls-2" d="M0.08,44.66l2.5-.33q6.92-2,13.52-4.59c-5.19,1.37-10.55,2.5-16,3.42v1.5Z" transform="translate(-0.08 0.03)"/><path class="cls-3" d="M0.08,45.17c5.33-.88,10.55-2,15.63-3.29Q9.28,43.35,2.58,44.33l-2.5.7v0.15Z" transform="translate(-0.08 0.03)"/><path class="cls-3" d="M0.08,45l2.5-.7-2.5.33V45Z" transform="translate(-0.08 0.03)"/><path class="cls-3" d="M16.1,39.74C39.22,30.75,59.18,16.89,73.79,0H71.19C53.72,19.66,28.77,35,.08,43v0.2C5.55,42.24,10.9,41.11,16.1,39.74Z" transform="translate(-0.08 0.03)"/><path class="cls-3" d="M91.45,0H87.19C71.8,19.65,46.23,34.91,15.7,41.88c-5.08,1.31-10.3,2.4-15.63,3.29v2.94C39.6,43.12,73.17,24.79,91.45,0Z" transform="translate(-0.08 0.03)"/><line class="cls-4" x1="162.35" y1="13.99" x2="162.35" y2="37.06"/><path class="cls-5" d="M89.35,17.21a4.94,4.94,0,0,1,.8-0.12l0.85,0a4.9,4.9,0,0,1,.92.09,2.49,2.49,0,0,1,.85.32,1.82,1.82,0,0,1,.62.65,2.06,2.06,0,0,1,.24,1,2.26,2.26,0,0,1-.23,1.06,2,2,0,0,1-.6.7,2.42,2.42,0,0,1-.85.39,4.14,4.14,0,0,1-1,.12H90.17V24H89.35V17.21ZM91,17.77H90.55a1.69,1.69,0,0,0-.37,0v2.84h0.76a3.49,3.49,0,0,0,.66,0,1.73,1.73,0,0,0,.59-0.23,1.22,1.22,0,0,0,.43-0.49,1.64,1.64,0,0,0,.16-0.77,1.35,1.35,0,0,0-.15-0.67,1.22,1.22,0,0,0-.4-0.43,1.71,1.71,0,0,0-.56-0.23A2.94,2.94,0,0,0,91,17.77h0Z" transform="translate(-0.08 0.03)"/><path class="cls-5" d="M95.24,17.21a8.61,8.61,0,0,1,.86-0.11q0.49,0,.9,0a3.63,3.63,0,0,1,.86.1,2,2,0,0,1,.72.32,1.64,1.64,0,0,1,.49.59,1.92,1.92,0,0,1,.19.88,1.79,1.79,0,0,1-.13.71A2,2,0,0,1,98,20.76L99.84,24h-1l-1.62-3H96.05v3H95.24v-6.8ZM97,17.77H96.23l-0.18,0v2.53h0.76A1.8,1.8,0,0,0,97.93,20a1.22,1.22,0,0,0,.44-1A1.15,1.15,0,0,0,98,18.08,1.41,1.41,0,0,0,97,17.77Z" transform="translate(-0.08 0.03)"/><path class="cls-5" d="M100.61,20.57a4.8,4.8,0,0,1,.6-2.63,2.06,2.06,0,0,1,1.85-.92,2.45,2.45,0,0,1,1.16.25A2,2,0,0,1,105,18a3.25,3.25,0,0,1,.42,1.12,7.62,7.62,0,0,1,.13,1.47,4.8,4.8,0,0,1-.61,2.62,2.08,2.08,0,0,1-1.87.92,2.37,2.37,0,0,1-1.15-.25,2,2,0,0,1-.76-0.72,3.25,3.25,0,0,1-.42-1.12A7.64,7.64,0,0,1,100.61,20.57Zm0.85,0a7.55,7.55,0,0,0,.07,1.08,3.07,3.07,0,0,0,.26.9,1.66,1.66,0,0,0,.49.62,1.25,1.25,0,0,0,.78.23,1.31,1.31,0,0,0,1.24-.68,4.5,4.5,0,0,0,.39-2.14,7.58,7.58,0,0,0-.07-1.07,3.06,3.06,0,0,0-.27-0.91,1.62,1.62,0,0,0-.49-0.62,1.44,1.44,0,0,0-2,.43l0,0A4.55,4.55,0,0,0,101.46,20.57Z" transform="translate(-0.08 0.03)"/><path class="cls-5" d="M110.31,17.82a4.16,4.16,0,0,0-.82-0.07,2.24,2.24,0,0,0-.79.14,1.65,1.65,0,0,0-.67.49,2.45,2.45,0,0,0-.46.87,4.41,4.41,0,0,0-.17,1.33,3.46,3.46,0,0,0,.53,2.13,1.85,1.85,0,0,0,1.55.69,2.19,2.19,0,0,0,1.07-.25V21.25h-1.42V20.58h2.12v3a2,2,0,0,1-.38.22,3.39,3.39,0,0,1-.49.17,3.82,3.82,0,0,1-.52.1,4.14,4.14,0,0,1-.52,0,3.1,3.1,0,0,1-1.18-.21,2.21,2.21,0,0,1-.88-0.65,3,3,0,0,1-.56-1.11,5.68,5.68,0,0,1-.2-1.58,4.79,4.79,0,0,1,.27-1.63,3.14,3.14,0,0,1,.64-1.13,2.45,2.45,0,0,1,.92-0.62,3,3,0,0,1,1.07-.2,6.06,6.06,0,0,1,1,.06,3.07,3.07,0,0,1,.65.17v1.68h-0.73V17.82h0Z" transform="translate(-0.08 0.03)"/><path class="cls-5" d="M112.88,17.21a8.61,8.61,0,0,1,.86-0.11q0.49,0,.89,0a3.63,3.63,0,0,1,.86.1,2,2,0,0,1,.72.32,1.64,1.64,0,0,1,.49.59,1.92,1.92,0,0,1,.19.88,1.79,1.79,0,0,1-.13.71,2,2,0,0,1-1.07,1.09L117.49,24h-1l-1.62-3H113.7v3h-0.81v-6.8Zm1.76,0.56h-0.77l-0.18,0v2.53h0.76a1.8,1.8,0,0,0,1.12-.33,1.22,1.22,0,0,0,.44-1,1.15,1.15,0,0,0-.36-0.87,1.41,1.41,0,0,0-1-.32h0Z" transform="translate(-0.08 0.03)"/><path class="cls-5" d="M118.84,17.14h4v0.73h-3.22v2.25h3v0.73h-3v2.45h3.26V24h-4.08V17.15h0Z" transform="translate(-0.08 0.03)"/><path class="cls-5" d="M125.14,23a3.26,3.26,0,0,0,.66.26,2.74,2.74,0,0,0,.74.1,2.77,2.77,0,0,0,.61-0.06,1.44,1.44,0,0,0,.49-0.21,1.06,1.06,0,0,0,.33-0.36,1,1,0,0,0,.12-0.49,0.86,0.86,0,0,0-.27-0.66,2.69,2.69,0,0,0-.67-0.45q-0.4-.2-0.87-0.38a5.18,5.18,0,0,1-.87-0.44,2.45,2.45,0,0,1-.67-0.62,1.54,1.54,0,0,1-.27-0.94,1.6,1.6,0,0,1,.16-0.73,1.57,1.57,0,0,1,.46-0.55,2.16,2.16,0,0,1,.71-0.35,3.28,3.28,0,0,1,.93-0.12,6.28,6.28,0,0,1,1.07.08,2.94,2.94,0,0,1,.76.22h0v1.6h-0.68V17.89l-0.54-.1a4.8,4.8,0,0,0-.63,0,2,2,0,0,0-.58.08,1.47,1.47,0,0,0-.44.21,1,1,0,0,0-.28.31,0.75,0.75,0,0,0-.1.37,0.84,0.84,0,0,0,.27.64,2.78,2.78,0,0,0,.67.46q0.4,0.2.87,0.4a5.53,5.53,0,0,1,.87.46,2.55,2.55,0,0,1,.67.62,1.47,1.47,0,0,1,.27.9,1.89,1.89,0,0,1-.16.79,1.75,1.75,0,0,1-.46.61,2.08,2.08,0,0,1-.74.39,3.28,3.28,0,0,1-1,.14,4.05,4.05,0,0,1-.71-0.06,4.81,4.81,0,0,1-.61-0.15,4.64,4.64,0,0,1-.49-0.19l-0.35-.17V21.95h0.73V23h0Z" transform="translate(-0.08 0.03)"/><path class="cls-5" d="M131,23a3.26,3.26,0,0,0,.66.26,2.74,2.74,0,0,0,.74.1,2.77,2.77,0,0,0,.61-0.06,1.44,1.44,0,0,0,.49-0.21,1.06,1.06,0,0,0,.33-0.36,1,1,0,0,0,.12-0.49,0.86,0.86,0,0,0-.27-0.66,2.69,2.69,0,0,0-.67-0.45q-0.4-.2-0.87-0.38a5.18,5.18,0,0,1-.87-0.44,2.45,2.45,0,0,1-.67-0.62,1.54,1.54,0,0,1-.27-0.94,1.6,1.6,0,0,1,.16-0.73,1.57,1.57,0,0,1,.46-0.55,2.16,2.16,0,0,1,.71-0.35,3.28,3.28,0,0,1,.93-0.12,6.28,6.28,0,0,1,1.07.08,2.94,2.94,0,0,1,.76.22h0v1.6h-0.68V17.89l-0.54-.1a4.8,4.8,0,0,0-.63,0,2,2,0,0,0-.58.08,1.47,1.47,0,0,0-.44.21,1,1,0,0,0-.28.31,0.75,0.75,0,0,0-.1.37,0.84,0.84,0,0,0,.27.64,2.78,2.78,0,0,0,.67.46q0.4,0.2.87,0.4a5.53,5.53,0,0,1,.87.46,2.55,2.55,0,0,1,.67.62,1.47,1.47,0,0,1,.27.9,1.89,1.89,0,0,1-.16.79,1.75,1.75,0,0,1-.46.61,2.08,2.08,0,0,1-.74.39,3.28,3.28,0,0,1-1,.14,4.05,4.05,0,0,1-.71-0.06,4.81,4.81,0,0,1-.61-0.15,4.64,4.64,0,0,1-.49-0.19l-0.35-.17V21.95H131V23h0Z" transform="translate(-0.08 0.03)"/><path class="cls-5" d="M136,17.14h4.71v0.73h-2v5.39h2V24H136V23.28h2V17.89h-2V17.14Z" transform="translate(-0.08 0.03)"/><path class="cls-5" d="M144.28,23h0.11l1.86-5.85h0.81L144.76,24h-1l-2.35-6.86h0.89Z" transform="translate(-0.08 0.03)"/><path class="cls-5" d="M148.25,17.14h4v0.73h-3.22v2.25h3v0.73h-3v2.45h3.26V24h-4.08V17.15h0Z" transform="translate(-0.08 0.03)"/><path class="cls-5" d="M109.84,32.34h-2l-0.49,1.52H106L108.17,27h1.34l2.21,6.86h-1.41Zm-1.74-1.08h1.47L108.87,29h-0.09Z" transform="translate(-0.08 0.03)"/><path class="cls-5" d="M115.86,31.07h1.22v2.79h-4.5V27h1.34v5.67h2v-1.6h0Z" transform="translate(-0.08 0.03)"/><path class="cls-5" d="M121.74,31.07H123v2.79h-4.5V27h1.34v5.67h2v-1.6h0Z" transform="translate(-0.08 0.03)"/><path class="cls-5" d="M124.09,32.67h1.72V28.2h-1.72V27h4.82v1.2h-1.75v4.47h1.75v1.2h-4.82v-1.2Z" transform="translate(-0.08 0.03)"/><path class="cls-5" d="M133.37,32.34h-2l-0.49,1.52h-1.34L131.7,27H133l2.21,6.86h-1.41Zm-1.74-1.08h1.47L132.4,29h-0.09Z" transform="translate(-0.08 0.03)"/><path class="cls-5" d="M137.14,29.8h-0.06l0.07,0.81v3.25h-1.27V27h1.18l2.37,4.2h0l-0.09-.82V27h1.27v6.86h-1.18Z" transform="translate(-0.08 0.03)"/><path class="cls-5" d="M145.56,31.56h1.08v2a2.4,2.4,0,0,1-.8.35,4,4,0,0,1-2.23-.06,2.63,2.63,0,0,1-1-.62,3,3,0,0,1-.71-1.1,4.57,4.57,0,0,1-.26-1.65,4.21,4.21,0,0,1,.3-1.69,3.11,3.11,0,0,1,.77-1.1,2.87,2.87,0,0,1,1-.6,3.78,3.78,0,0,1,1.14-.18,4.33,4.33,0,0,1,1,.1,3.43,3.43,0,0,1,.67.23v2h-1.08V28.1a4,4,0,0,0-.63,0,1.77,1.77,0,0,0-.71.14,1.53,1.53,0,0,0-.57.44,2.11,2.11,0,0,0-.38.74,3.6,3.6,0,0,0-.14,1.05,3.43,3.43,0,0,0,.13,1,2.2,2.2,0,0,0,.37.75,1.69,1.69,0,0,0,.6.49,1.81,1.81,0,0,0,.8.17,3.29,3.29,0,0,0,.63-0.06v-1.2h0Z" transform="translate(-0.08 0.03)"/><path class="cls-5" d="M147.78,27h4.5v1.2h-3.16v1.6H152V31h-2.91v1.68h3.21v1.2h-4.55V27Z" transform="translate(-0.08 0.03)"/></svg>