<svg id="Ebene_1" data-name="Ebene 1" xmlns="http://www.w3.org/2000/svg" viewBox="0 0 400 138.58"><defs><style>.cls-1{fill:none;}.cls-2{fill:#c1011f;}.cls-3{fill:#009de1;}.cls-4{fill:#96c52c;}</style></defs><title>Progressive-Alliance-Logo-02</title><g id="Ebene_1-2" data-name="Ebene 1-2"><path class="cls-1" d="M0,0"/><path class="cls-2" d="M52.5,34a19.22,19.22,0,0,1,2.21-.33c0.83-.07,1.53-0.07,2.34-0.07a10.37,10.37,0,0,1,2.49.27,7,7,0,0,1,2.34.83,4.64,4.64,0,0,1,1.66,1.73,5.22,5.22,0,0,1,.66,2.87,6.29,6.29,0,0,1-.6,2.87A5.66,5.66,0,0,1,62,44.1a6.8,6.8,0,0,1-2.34,1.07,12.18,12.18,0,0,1-2.67.33H55.84a2.27,2.27,0,0,1-.66-0.07,1.3,1.3,0,0,0-.46-0.07v7.07H52.5V34Zm4.6,1.53H55.77a3.62,3.62,0,0,0-1,.13v7.7a0.61,0.61,0,0,0,.4.07h1.6a8.29,8.29,0,0,0,1.84-.18,5.71,5.71,0,0,0,1.6-.6,3.47,3.47,0,0,0,1.1-1.24,4.82,4.82,0,0,0,.46-2.14,3.6,3.6,0,0,0-.4-1.8,4.6,4.6,0,0,0-1.11-1.16,4.34,4.34,0,0,0-1.53-.66,14.1,14.1,0,0,0-1.66-.11h0Z"/><path class="cls-2" d="M68.56,34a20.63,20.63,0,0,1,2.34-.27c0.83-.07,1.66-0.13,2.41-0.13a9,9,0,0,1,2.34.27,5.71,5.71,0,0,1,1.93.83,4.52,4.52,0,0,1,1.34,1.6,5.32,5.32,0,0,1,.53,2.41,5.58,5.58,0,0,1-.33,1.93,7.75,7.75,0,0,1-.83,1.47,7.34,7.34,0,0,1-1.14,1,7.65,7.65,0,0,1-.94.53l5,8.88H78.51l-4.4-8.21H70.79V52.5H68.56V34Zm4.81,1.53H71.87c-0.2,0-.46.07-0.66,0.07l-0.46.07v6.88h2.07a5.08,5.08,0,0,0,3.07-.94,3.63,3.63,0,0,0,.28-5.13h0l-0.07-.07a3.86,3.86,0,0,0-2.76-.83Z"/><path class="cls-2" d="M83.14,43.12c0-3.07.53-5.47,1.66-7.14a5.66,5.66,0,0,1,5.08-2.56,6.42,6.42,0,0,1,3.13.66A5.81,5.81,0,0,1,95.08,36a8,8,0,0,1,1.14,3.07A24.05,24.05,0,0,1,96.55,43c0,3.07-.53,5.47-1.66,7.14a5.66,5.66,0,0,1-5.08,2.54A6.63,6.63,0,0,1,86.68,52a5.81,5.81,0,0,1-2.07-1.93,8.39,8.39,0,0,1-1.12-3A22.83,22.83,0,0,1,83.14,43.12Zm2.34,0a21,21,0,0,0,.2,2.94,8.92,8.92,0,0,0,.74,2.49,4.23,4.23,0,0,0,1.34,1.66,3.52,3.52,0,0,0,2.14.6,3.47,3.47,0,0,0,3.32-1.87,11.92,11.92,0,0,0,1.07-5.81,21,21,0,0,0-.2-2.94,8.92,8.92,0,0,0-.74-2.49A4.23,4.23,0,0,0,92,36.05a3.67,3.67,0,0,0-2.14-.6,3.53,3.53,0,0,0-3.32,1.87,12.14,12.14,0,0,0-1.07,5.81h0Z"/><path class="cls-2" d="M109.58,35.66a10.33,10.33,0,0,0-2.21-.2,5.81,5.81,0,0,0-2.14.4,4.69,4.69,0,0,0-1.8,1.27,6.79,6.79,0,0,0-1.27,2.41,11.53,11.53,0,0,0-.43,3.59c0,2.6.46,4.6,1.47,5.81a5,5,0,0,0,4.2,1.87,5.81,5.81,0,0,0,2.94-.66V45h-3.87V43.12h5.74v8.21a6.63,6.63,0,0,1-1,.6,7.12,7.12,0,0,1-1.27.46,10.37,10.37,0,0,1-1.4.27,9.86,9.86,0,0,1-1.4.07,8.07,8.07,0,0,1-3.2-.6,6.94,6.94,0,0,1-2.41-1.73,9.12,9.12,0,0,1-1.53-3,16.39,16.39,0,0,1-.53-4.34,12.24,12.24,0,0,1,.66-4.4,9.35,9.35,0,0,1,1.71-3A5.81,5.81,0,0,1,104.37,34a8.79,8.79,0,0,1,2.94-.53,15,15,0,0,1,2.67.2,8,8,0,0,1,1.73.46v4.6h-2V35.66h-0.13Z"/><path class="cls-2" d="M116.58,34a20.63,20.63,0,0,1,2.34-.27c0.83-.07,1.66-0.13,2.41-0.13a9,9,0,0,1,2.34.27,5.71,5.71,0,0,1,1.93.83,4.52,4.52,0,0,1,1.34,1.6,5.32,5.32,0,0,1,.53,2.41,5.58,5.58,0,0,1-.33,1.93,7.75,7.75,0,0,1-.83,1.47,7.34,7.34,0,0,1-1.11,1,7.66,7.66,0,0,1-.94.53l5,8.88h-2.7l-4.4-8.21h-3.32V52.5H116.6V34h0Zm4.81,1.53h-1.47c-0.2,0-.46.07-0.66,0.07l-0.46.07v6.88h2.07a5.08,5.08,0,0,0,3.07-.94,3.63,3.63,0,0,0,.28-5.13h0l-0.09-.07a3.86,3.86,0,0,0-2.75-.83h0Z"/><path class="cls-2" d="M132.8,33.82h10.95v2H135V42h8.08v2H135v6.63h8.88v2H132.8V33.82Z"/><path class="cls-2" d="M150,49.84a11.25,11.25,0,0,0,1.8.74,6.89,6.89,0,0,0,2,.27,6.73,6.73,0,0,0,1.66-.2,6.18,6.18,0,0,0,1.34-.53,3.32,3.32,0,0,0,.94-1,3.1,3.1,0,0,0,.33-1.4,2.49,2.49,0,0,0-.74-1.8,6.07,6.07,0,0,0-1.8-1.2c-0.74-.33-1.53-0.74-2.41-1.07a13.46,13.46,0,0,1-2.41-1.2,6.19,6.19,0,0,1-1.8-1.66,4.38,4.38,0,0,1-.74-2.54,4,4,0,0,1,.46-2,4.49,4.49,0,0,1,1.24-1.47,5.81,5.81,0,0,1,1.93-.94,9.73,9.73,0,0,1,2.54-.33,19.66,19.66,0,0,1,2.94.2,7,7,0,0,1,2.07.6h0.07v0.07h0V38.7h-2V35.83a9.58,9.58,0,0,0-1.47-.27,14.1,14.1,0,0,0-1.73-.13,5.81,5.81,0,0,0-1.6.2,3.39,3.39,0,0,0-1.2.6,2.23,2.23,0,0,0-.74.83,1.88,1.88,0,0,0-.27,1,2.42,2.42,0,0,0,.75,1.75,7.79,7.79,0,0,0,1.8,1.27c0.74,0.33,1.53.74,2.41,1.07a13.68,13.68,0,0,1,2.41,1.27,7.24,7.24,0,0,1,1.8,1.66,4.15,4.15,0,0,1,.74,2.49,4.38,4.38,0,0,1-.46,2.14,4.45,4.45,0,0,1-1.27,1.66,5.72,5.72,0,0,1-2,1.07,8.29,8.29,0,0,1-2.67.4,17.63,17.63,0,0,1-1.93-.13c-0.6-.13-1.14-0.27-1.66-0.4a6.18,6.18,0,0,1-1.34-.53c-0.4-.2-0.74-0.33-0.94-0.46v-4.4h2v2.94h0Z"/><path class="cls-2" d="M166,49.84a11.25,11.25,0,0,0,1.8.74,6.89,6.89,0,0,0,2,.27,6.73,6.73,0,0,0,1.66-.2,6.18,6.18,0,0,0,1.34-.53,3.32,3.32,0,0,0,.94-1,3.1,3.1,0,0,0,.33-1.4,2.49,2.49,0,0,0-.74-1.8,6.07,6.07,0,0,0-1.8-1.2c-0.74-.33-1.53-0.74-2.41-1.07a13.46,13.46,0,0,1-2.41-1.2,6.19,6.19,0,0,1-1.8-1.66,4.38,4.38,0,0,1-.74-2.54,4,4,0,0,1,.46-2,4.49,4.49,0,0,1,1.27-1.47,5.81,5.81,0,0,1,1.93-.94,9.73,9.73,0,0,1,2.54-.33,19.66,19.66,0,0,1,2.94.2,7,7,0,0,1,2.07.6h0.07v0.07h0V38.7h-2V35.83a9.58,9.58,0,0,0-1.47-.27,14.1,14.1,0,0,0-1.73-.13,5.81,5.81,0,0,0-1.6.2,3.39,3.39,0,0,0-1.2.6,2.23,2.23,0,0,0-.74.83,1.88,1.88,0,0,0-.27,1,2.42,2.42,0,0,0,.74,1.73,7.79,7.79,0,0,0,1.8,1.27c0.74,0.33,1.53.74,2.41,1.07a13.68,13.68,0,0,1,2.41,1.27A7.24,7.24,0,0,1,175.54,45a4.15,4.15,0,0,1,.74,2.49,4.38,4.38,0,0,1-.46,2.14,4.45,4.45,0,0,1-1.27,1.66,5.72,5.72,0,0,1-2,1.07,8.29,8.29,0,0,1-2.67.4,17.63,17.63,0,0,1-1.93-.13c-0.6-.13-1.14-0.27-1.66-0.4a6.18,6.18,0,0,1-1.34-.53c-0.4-.2-0.74-0.33-0.94-0.46V46.91h2v2.94h0Z"/><path class="cls-2" d="M179.6,33.82h12.81v2h-5.34V50.59h5.34v2H179.6v-2h5.27V35.83H179.6v-2Z"/><path class="cls-2" d="M202.08,49.76h0.27l5.08-16h2.21L203.35,52.5h-2.6L194.34,33.8h2.41Z"/><path class="cls-2" d="M212.86,33.82h10.95v2h-8.7V42h8.08v2h-8.08v6.63H224v2H212.86V33.82Z"/><path class="cls-2" d="M108.25,75.07h-5.61l-1.27,4.15H97.7l6-18.68h3.67l6,18.69h-3.87Zm-4.74-2.92h4l-1.87-6.28h-0.27Z"/><path class="cls-2" d="M124.67,71.57H128v7.61H115.72V60.54h3.67v15.4h5.34V71.57h-0.07Z"/><path class="cls-2" d="M140.68,71.57H144v7.61H131.74V60.54h3.67v15.4h5.34V71.57h-0.07Z"/><path class="cls-2" d="M147.09,75.94h4.74V63.79h-4.74V60.54h13.15v3.27h-4.74V75.94h4.74v3.27H147.09V75.94Z"/><path class="cls-2" d="M172.33,75.07h-5.61l-1.27,4.15h-3.67l6-18.68h3.67l6,18.69h-3.87Zm-4.74-2.92h4l-1.87-6.28h-0.27Z"/><path class="cls-2" d="M182.64,68.13h-0.17l0.17,2.21v8.81h-3.47V60.46h3.2l6.48,11.41H189l-0.27-2.27V60.39h3.47V79H189Z"/><path class="cls-2" d="M205.57,72.94h2.94v5.34a6.1,6.1,0,0,1-2.21.94,12.28,12.28,0,0,1-2.74.33,10.92,10.92,0,0,1-3.32-.53,7.46,7.46,0,0,1-2.8-1.66,8.64,8.64,0,0,1-1.93-3,12.8,12.8,0,0,1-.74-4.47,11.86,11.86,0,0,1,.83-4.6,9.21,9.21,0,0,1,2.07-3,8.14,8.14,0,0,1,2.87-1.6,10.1,10.1,0,0,1,3.07-.46,10.84,10.84,0,0,1,2.74.27,14.1,14.1,0,0,1,1.8.6v5.52h-2.94V63.53a14.1,14.1,0,0,0-1.73-.13,4.79,4.79,0,0,0-1.93.4A3.86,3.86,0,0,0,200,65a5.72,5.72,0,0,0-1.07,2,9,9,0,0,0-.4,2.87,10.27,10.27,0,0,0,.33,2.6,6.63,6.63,0,0,0,1,2.07,5,5,0,0,0,1.6,1.34,4.65,4.65,0,0,0,2.21.46,15.19,15.19,0,0,0,1.73-.13V72.94h0.15Z"/><path class="cls-2" d="M211.57,60.54h12.28v3.27h-8.61v4.34h7.94V71.4h-7.94v4.54H224v3.27H211.55V60.54h0Z"/><path class="cls-3" d="M236.23,107.48c-8.24,3.07-16.59,6-25.27,8.62,32.57-5.64,62.64-14.76,88.55-27.2C347.12,66.11,375.58,34.83,380.66,0h-2.88C370.33,48.73,314.65,88.61,236.23,107.48Z"/><path class="cls-3" d="M109.53,122.24c3.37,0.17,6.73.25,10,.33,8-.91,15.89-2.07,23.69-3.32-3.94.08-7.87,0.17-11.88,0.17-7.16-.08-14.39-0.25-21.76-0.5A473.69,473.69,0,0,1,0,101.54V105C33.84,114.7,71,120.57,109.53,122.24Z"/><path class="cls-4" d="M373.46,40.31C359.21,57.72,338.89,73.15,313,86.25c-34.29,17.42-75.67,29.36-120.69,35.16a500.23,500.23,0,0,1-50.11,10.53C207.39,130.12,268,116.35,315.41,92.3,363.31,68,392.74,35.66,400,0h-6C390.88,13.94,384,27.43,373.46,40.31Z"/><path class="cls-4" d="M47,126h2.22c15.82,0.32,31.9-.18,48.25-1.37A482.93,482.93,0,0,1,0,109.47v6.78A465.16,465.16,0,0,0,47,126Z"/><path class="cls-4" d="M357.07,8.87c-12.44,18.74-31,36.32-55.19,52.25-42.45,27.95-97.79,48.18-158.56,58.14-7.8,1.24-15.76,2.41-23.69,3.32-3.72.41-7.37,0.83-11.1,1.16s-7.3.66-11,.91C81.21,125.92,65,126.31,49.25,126H47a442.48,442.48,0,0,1-47-3.49V135a472.64,472.64,0,0,0,58.71,3.54c16.59,0,33.57-.83,50.68-2.49q16.64-1.66,32.86-4.23a500.2,500.2,0,0,0,50.11-10.53c6.3-1.66,12.44-3.4,18.61-5.31,8.59-2.65,17-5.56,25.27-8.62,26.13-9.79,50-21.73,70.94-35.58C339.81,50.32,362.74,25.71,374.85,0H362.41Q360,4.45,357.07,8.87Z"/><path class="cls-4" d="M47,126h0Z"/></g></svg>