<?xml version="1.0" encoding="utf-8"?>
<!-- Generator: Adobe Illustrator 20.1.0, SVG Export Plug-In . SVG Version: 6.00 Build 0)  -->
<svg version="1.1" id="Ebene_1" xmlns="http://www.w3.org/2000/svg" xmlns:xlink="http://www.w3.org/1999/xlink" x="0px" y="0px"
	 viewBox="0 0 400 138.5" style="enable-background:new 0 0 400 138.5;" xml:space="preserve">
<style type="text/css">
	.st0{fill:none;}
	.st1{fill:#FFFFFF;}
	.st2{fill:#009DE1;}
	.st3{fill:#C1011F;}
	.st4{fill:#96C52C;}
</style>
<title>progressive-alliance-logo-03</title>
<g id="Ebene_1-2">
	<path class="st0" d="M0,0"/>
	<path class="st1" d="M52.5,34c0.7-0.2,1.5-0.3,2.2-0.3c0.8-0.1,1.5-0.1,2.3-0.1c0.8,0,1.7,0.1,2.5,0.3c0.8,0.1,1.6,0.4,2.3,0.8
		c0.7,0.4,1.3,1,1.7,1.7c0.5,0.9,0.7,1.9,0.7,2.9c0,1-0.2,2-0.6,2.9c-0.4,0.8-0.9,1.4-1.6,1.9c-0.7,0.5-1.5,0.9-2.3,1.1
		c-0.9,0.2-1.8,0.3-2.7,0.3h-1.1c-0.2,0-0.4,0-0.7-0.1c-0.1-0.1-0.3-0.1-0.5-0.1v7.1h-2.2V34z M57.1,35.5h-1.3c-0.3,0-0.7,0-1,0.1
		v7.7c0.1,0.1,0.3,0.1,0.4,0.1h1.6c0.6,0,1.2-0.1,1.8-0.2c0.6-0.1,1.1-0.3,1.6-0.6c0.5-0.3,0.8-0.7,1.1-1.2c0.3-0.7,0.5-1.4,0.5-2.1
		c0-0.6-0.1-1.2-0.4-1.8c-0.3-0.4-0.7-0.8-1.1-1.2c-0.5-0.3-1-0.5-1.5-0.7C58.2,35.6,57.6,35.5,57.1,35.5L57.1,35.5L57.1,35.5z"/>
	<path class="st1" d="M68.6,34c0.8-0.1,1.6-0.2,2.3-0.3c0.8-0.1,1.7-0.1,2.4-0.1c0.8,0,1.6,0.1,2.3,0.3c0.7,0.2,1.3,0.4,1.9,0.8
		c0.6,0.4,1,1,1.3,1.6c0.4,0.8,0.5,1.6,0.5,2.4c0,0.7-0.1,1.3-0.3,1.9c-0.2,0.5-0.5,1-0.8,1.5c-0.3,0.4-0.7,0.7-1.1,1
		c-0.3,0.2-0.6,0.4-0.9,0.5l5,8.9h-2.7l-4.4-8.2h-3.3v8.2h-2.2V34z M73.4,35.5h-1.5c-0.2,0-0.5,0.1-0.7,0.1l-0.5,0.1v6.9h2.1
		c1.1,0,2.2-0.3,3.1-0.9c1.5-1.3,1.6-3.6,0.3-5.1l0,0l0,0l-0.1-0.1C75.3,35.8,74.3,35.5,73.4,35.5L73.4,35.5z"/>
	<path class="st1" d="M83.1,43.1c0-3.1,0.5-5.5,1.7-7.1c1.1-1.7,3-2.7,5.1-2.6c1.1,0,2.2,0.2,3.1,0.7c0.8,0.5,1.5,1.1,2.1,1.9
		c0.6,0.9,1,2,1.1,3.1c0.2,1.3,0.3,2.6,0.3,3.9c0,3.1-0.5,5.5-1.7,7.1c-1.1,1.7-3.1,2.7-5.1,2.5c-1.1,0-2.2-0.2-3.1-0.7
		c-0.8-0.5-1.5-1.1-2.1-1.9c-0.6-0.9-0.9-1.9-1.1-3C83.3,45.8,83.1,44.4,83.1,43.1z M85.5,43.1c0,1,0.1,2,0.2,2.9
		c0.1,0.9,0.4,1.7,0.7,2.5c0.3,0.7,0.8,1.2,1.3,1.7c0.6,0.4,1.4,0.6,2.1,0.6c1.4,0.1,2.7-0.6,3.3-1.9c0.8-1.8,1.2-3.8,1.1-5.8
		c0-1-0.1-2-0.2-2.9c-0.1-0.9-0.4-1.7-0.7-2.5C93,37,92.6,36.5,92,36c-0.6-0.4-1.4-0.6-2.1-0.6c-1.4-0.1-2.7,0.7-3.3,1.9
		C85.7,39.1,85.3,41.1,85.5,43.1L85.5,43.1L85.5,43.1z"/>
	<path class="st1" d="M109.6,35.7c-0.7-0.1-1.5-0.2-2.2-0.2c-0.7,0-1.5,0.1-2.1,0.4c-0.7,0.3-1.3,0.7-1.8,1.3
		c-0.6,0.7-1,1.5-1.3,2.4c-0.3,1.2-0.5,2.4-0.4,3.6c0,2.6,0.5,4.6,1.5,5.8c1,1.3,2.6,2,4.2,1.9c1,0,2-0.2,2.9-0.7V45h-3.9v-1.9h5.7
		v8.2c-0.3,0.2-0.6,0.4-1,0.6c-0.4,0.2-0.8,0.3-1.3,0.5c-0.5,0.1-0.9,0.2-1.4,0.3c-0.5,0.1-0.9,0.1-1.4,0.1c-1.1,0-2.2-0.2-3.2-0.6
		c-0.9-0.4-1.7-1-2.4-1.7c-0.7-0.9-1.2-1.9-1.5-3c-0.4-1.4-0.5-2.9-0.5-4.3c-0.1-1.5,0.2-3,0.7-4.4c0.4-1.1,1-2.1,1.7-3
		c0.7-0.8,1.6-1.3,2.5-1.7c0.9-0.3,1.9-0.5,2.9-0.5c0.9,0,1.8,0.1,2.7,0.2c0.6,0.1,1.2,0.2,1.7,0.5v4.6h-2v-3.1H109.6z"/>
	<path class="st1" d="M116.6,34c0.8-0.1,1.6-0.2,2.3-0.3c0.8-0.1,1.7-0.1,2.4-0.1c0.8,0,1.6,0.1,2.3,0.3c0.7,0.2,1.3,0.4,1.9,0.8
		c0.6,0.4,1,1,1.3,1.6c0.4,0.8,0.5,1.6,0.5,2.4c0,0.7-0.1,1.3-0.3,1.9c-0.2,0.5-0.5,1-0.8,1.5c-0.3,0.4-0.7,0.7-1.1,1
		c-0.3,0.2-0.6,0.4-0.9,0.5l5,8.9h-2.7l-4.4-8.2h-3.3v8.2h-2.2L116.6,34L116.6,34z M121.4,35.5h-1.5c-0.2,0-0.5,0.1-0.7,0.1
		l-0.5,0.1v6.9h2.1c1.1,0,2.2-0.3,3.1-0.9c1.5-1.3,1.6-3.6,0.3-5.1l0,0l0,0l-0.1-0.1C123.4,35.8,122.4,35.5,121.4,35.5L121.4,35.5
		L121.4,35.5z"/>
	<path class="st1" d="M132.8,33.8h10.9v2H135V42h8.1v2H135v6.6h8.9v2h-11.1V33.8z"/>
	<path class="st1" d="M150,49.8c0.6,0.3,1.2,0.5,1.8,0.7c0.6,0.2,1.3,0.3,2,0.3c0.6,0,1.1-0.1,1.7-0.2c0.5-0.1,0.9-0.3,1.3-0.5
		c0.4-0.3,0.7-0.6,0.9-1c0.2-0.4,0.3-0.9,0.3-1.4c0-0.7-0.3-1.3-0.7-1.8c-0.5-0.5-1.1-0.9-1.8-1.2c-0.7-0.3-1.5-0.7-2.4-1.1
		c-0.8-0.3-1.6-0.7-2.4-1.2c-0.7-0.4-1.3-1-1.8-1.7c-0.5-0.8-0.8-1.6-0.7-2.5c0-0.7,0.1-1.4,0.5-2c0.3-0.6,0.7-1.1,1.2-1.5
		c0.6-0.4,1.2-0.7,1.9-0.9c0.8-0.2,1.7-0.3,2.5-0.3c1,0,2,0.1,2.9,0.2c0.7,0.1,1.4,0.3,2.1,0.6h0.1v0.1l0,0v4.3h-2v-2.9
		c-0.5-0.1-1-0.2-1.5-0.3c-0.6-0.1-1.2-0.1-1.7-0.1c-0.5,0-1.1,0.1-1.6,0.2c-0.4,0.1-0.8,0.3-1.2,0.6c-0.3,0.2-0.6,0.5-0.7,0.8
		c-0.2,0.3-0.3,0.6-0.3,1c0,0.7,0.3,1.3,0.8,1.8c0.5,0.5,1.1,0.9,1.8,1.3c0.7,0.3,1.5,0.7,2.4,1.1c0.8,0.3,1.7,0.8,2.4,1.3
		c0.7,0.4,1.3,1,1.8,1.7c0.5,0.7,0.8,1.6,0.7,2.5c0,0.7-0.1,1.5-0.5,2.1c-0.3,0.6-0.7,1.2-1.3,1.7c-0.6,0.5-1.3,0.9-2,1.1
		c-0.9,0.3-1.8,0.4-2.7,0.4c-0.6,0-1.3-0.1-1.9-0.1c-0.6-0.1-1.1-0.3-1.7-0.4c-0.5-0.1-0.9-0.3-1.3-0.5c-0.4-0.2-0.7-0.3-0.9-0.5
		v-4.4h2L150,49.8L150,49.8L150,49.8z"/>
	<path class="st1" d="M166,49.8c0.6,0.3,1.2,0.5,1.8,0.7c0.6,0.2,1.3,0.3,2,0.3c0.6,0,1.1-0.1,1.7-0.2c0.5-0.1,0.9-0.3,1.3-0.5
		c0.4-0.3,0.7-0.6,0.9-1c0.2-0.4,0.3-0.9,0.3-1.4c0-0.7-0.3-1.3-0.7-1.8c-0.5-0.5-1.1-0.9-1.8-1.2c-0.7-0.3-1.5-0.7-2.4-1.1
		c-0.8-0.3-1.6-0.7-2.4-1.2c-0.7-0.4-1.3-1-1.8-1.7c-0.5-0.8-0.8-1.6-0.7-2.5c0-0.7,0.1-1.4,0.5-2c0.3-0.6,0.7-1.1,1.3-1.5
		c0.6-0.4,1.2-0.7,1.9-0.9c0.8-0.2,1.7-0.3,2.5-0.3c1,0,2,0.1,2.9,0.2c0.7,0.1,1.4,0.3,2.1,0.6h0.1v0.1l0,0v4.3h-2v-2.9
		c-0.5-0.1-1-0.2-1.5-0.3c-0.6-0.1-1.2-0.1-1.7-0.1c-0.5,0-1.1,0.1-1.6,0.2c-0.4,0.1-0.8,0.3-1.2,0.6c-0.3,0.2-0.6,0.5-0.7,0.8
		c-0.2,0.3-0.3,0.6-0.3,1c0,0.7,0.3,1.3,0.7,1.7c0.5,0.5,1.1,0.9,1.8,1.3c0.7,0.3,1.5,0.7,2.4,1.1c0.8,0.3,1.7,0.8,2.4,1.3
		c0.7,0.4,1.3,1,1.7,1.6c0.5,0.7,0.8,1.6,0.7,2.5c0,0.7-0.1,1.5-0.5,2.1c-0.3,0.6-0.7,1.2-1.3,1.7c-0.6,0.5-1.3,0.9-2,1.1
		c-0.9,0.3-1.8,0.4-2.7,0.4c-0.6,0-1.3-0.1-1.9-0.1c-0.6-0.1-1.1-0.3-1.7-0.4c-0.5-0.1-0.9-0.3-1.3-0.5c-0.4-0.2-0.7-0.3-0.9-0.5
		v-4.3h2L166,49.8L166,49.8L166,49.8z"/>
	<path class="st1" d="M179.6,33.8h12.8v2h-5.3v14.8h5.3v2h-12.8v-2h5.3V35.8h-5.3V33.8z"/>
	<path class="st1" d="M202.1,49.8h0.3l5.1-16h2.2l-6.3,18.7h-2.6l-6.4-18.7h2.4L202.1,49.8z"/>
	<path class="st1" d="M212.9,33.8h10.9v2h-8.7V42h8.1v2h-8.1v6.6h8.9v2h-11.1V33.8z"/>
	<path class="st1" d="M108.2,75.1h-5.6l-1.3,4.2h-3.7l6-18.7h3.7l6,18.7h-3.9L108.2,75.1z M103.5,72.1h4l-1.9-6.3h-0.3L103.5,72.1z"
		/>
	<path class="st1" d="M124.7,71.6h3.3v7.6h-12.3V60.5h3.7v15.4h5.3L124.7,71.6L124.7,71.6z"/>
	<path class="st1" d="M140.7,71.6h3.3v7.6h-12.3V60.5h3.7v15.4h5.3L140.7,71.6L140.7,71.6z"/>
	<path class="st1" d="M147.1,75.9h4.7V63.8h-4.7v-3.2h13.1v3.3h-4.7v12.1h4.7v3.3h-13.2V75.9z"/>
	<path class="st1" d="M172.3,75.1h-5.6l-1.3,4.2h-3.7l6-18.7h3.7l6,18.7h-3.9L172.3,75.1z M167.6,72.1h4l-1.9-6.3h-0.3L167.6,72.1z"
		/>
	<path class="st1" d="M182.6,68.1h-0.2l0.2,2.2v8.8h-3.5V60.5h3.2l6.5,11.4h0.2l-0.3-2.3v-9.2h3.5V79H189L182.6,68.1z"/>
	<path class="st1" d="M205.6,72.9h2.9v5.3c-0.7,0.5-1.4,0.8-2.2,0.9c-0.9,0.2-1.8,0.3-2.7,0.3c-1.1,0-2.2-0.2-3.3-0.5
		c-1-0.3-2-0.9-2.8-1.7c-0.8-0.9-1.5-1.9-1.9-3c-0.5-1.4-0.8-2.9-0.7-4.5c0-1.6,0.3-3.1,0.8-4.6c0.5-1.1,1.2-2.1,2.1-3
		c0.8-0.7,1.8-1.3,2.9-1.6c1-0.3,2-0.5,3.1-0.5c0.9,0,1.8,0.1,2.7,0.3c0.6,0.2,1.2,0.4,1.8,0.6v5.5h-2.9v-3.1
		c-0.6-0.1-1.2-0.1-1.7-0.1c-0.7,0-1.3,0.1-1.9,0.4c-0.6,0.3-1.1,0.7-1.6,1.2c-0.5,0.6-0.9,1.3-1.1,2c-0.3,0.9-0.4,1.9-0.4,2.9
		c0,0.9,0.1,1.8,0.3,2.6c0.2,0.7,0.5,1.4,1,2.1c0.4,0.6,1,1,1.6,1.3c0.7,0.3,1.4,0.5,2.2,0.5c0.6,0,1.2-0.1,1.7-0.1v-3.3H205.6z"/>
	<path class="st1" d="M211.6,60.5h12.3v3.3h-8.6v4.3h7.9v3.2h-7.9v4.5h8.8v3.3h-12.4L211.6,60.5L211.6,60.5z"/>
	<path class="st2" d="M236.2,107.5c-8.2,3.1-16.6,6-25.3,8.6c32.6-5.6,62.6-14.8,88.6-27.2c47.6-22.8,76.1-54.1,81.1-88.9h-2.9
		C370.3,48.7,314.6,88.6,236.2,107.5z"/>
	<path class="st2" d="M109.5,122.2c3.4,0.2,6.7,0.2,10,0.3c8-0.9,15.9-2.1,23.7-3.3c-3.9,0.1-7.9,0.2-11.9,0.2
		c-7.2-0.1-14.4-0.2-21.8-0.5c-37.1-1.5-73.9-7.3-109.6-17.4v3.5C33.8,114.7,71,120.6,109.5,122.2z"/>
	<path class="st3" d="M373.5,40.3c-14.2,17.4-34.6,32.8-60.5,45.9c-34.3,17.4-75.7,29.4-120.7,35.2c-16.5,4.4-33.2,7.9-50.1,10.5
		c65.2-1.8,125.8-15.6,173.2-39.6C363.3,68,392.7,35.7,400,0h-6C390.9,13.9,384,27.4,373.5,40.3z"/>
	<path class="st3" d="M47,126h2.2c15.8,0.3,31.9-0.2,48.2-1.4c-32.9-1.7-65.6-6.8-97.5-15.2v6.8C15.5,120.3,31.2,123.6,47,126z"/>
	<path class="st4" d="M357.1,8.9c-12.4,18.7-31,36.3-55.2,52.2c-42.5,27.9-97.8,48.2-158.6,58.1c-7.8,1.2-15.8,2.4-23.7,3.3
		c-3.7,0.4-7.4,0.8-11.1,1.2s-7.3,0.7-11,0.9c-16.3,1.3-32.5,1.7-48.3,1.3H47c-15.7-0.3-31.4-1.5-47-3.5V135
		c19.5,2.4,39.1,3.6,58.7,3.5c16.6,0,33.6-0.8,50.7-2.5c11.1-1.1,22-2.5,32.9-4.2c16.9-2.7,33.6-6.2,50.1-10.5
		c6.3-1.7,12.4-3.4,18.6-5.3c8.6-2.7,17-5.6,25.3-8.6c26.1-9.8,50-21.7,70.9-35.6c32.6-21.5,55.6-46.1,67.7-71.8h-12.4
		C360.8,3,359,5.9,357.1,8.9z"/>
	<path class="st4" d="M47,126"/>
</g>
</svg>
